<svg width="30" height="30" viewBox="0 0 30 30" fill="none" xmlns="http://www.w3.org/2000/svg">
<g clip-path="url(#clip0_5_3)">
<path d="M28.7944 26.5823L16.2624 1.96031C15.9155 1.27828 15.458 0.9375 15 0.9375C14.542 0.9375 14.0845 1.27875 13.7377 1.96078L1.20563 26.5823C0.510944 27.9473 1.21313 29.0625 2.76563 29.0625H27.233C28.7859 29.0625 29.4891 27.9473 28.7944 26.5823M28.0655 27.8311C27.953 28.0153 27.6417 28.125 27.2334 28.125H2.76563C2.35782 28.125 2.04657 28.0163 1.93407 27.832C1.82719 27.6572 1.86704 27.3497 2.04141 27.008L14.573 2.38547C14.775 1.98938 14.9611 1.88156 15 1.875C15.0389 1.88203 15.225 1.98938 15.427 2.38594L27.9586 27.0084C28.1325 27.3497 28.1728 27.6572 28.0655 27.8311" fill="#111111"/>
<path d="M14.3208 19.7114C14.4497 20.5739 15.5503 20.5739 15.6792 19.7114L16.9673 11.0564C17.2045 7.68188 12.7936 7.68188 13.0317 11.0564L14.3208 19.7114" fill="#111111"/>
<path d="M15 25.2244C16.0922 25.2244 16.9777 24.3415 16.9777 23.2523C16.9777 22.1632 16.0922 21.2803 15 21.2803C13.9078 21.2803 13.0223 22.1632 13.0223 23.2523C13.0223 24.3415 13.9078 25.2244 15 25.2244Z" fill="#111111"/>
</g>
<defs>
<clipPath id="clip0_5_3">
<rect width="30" height="30" fill="white"/>
</clipPath>
</defs>
</svg>
