<svg width="35" height="23" viewBox="0 0 35 23" fill="none" xmlns="http://www.w3.org/2000/svg">
<path d="M17.2981 11.6731C16.6886 12.2826 15.862 12.625 15 12.625C14.138 12.625 13.3114 12.2826 12.7019 11.6731C12.0924 11.0636 11.75 10.237 11.75 9.375C11.75 8.51305 12.0924 7.6864 12.7019 7.0769C13.3114 6.46741 14.138 6.125 15 6.125C15.862 6.125 16.6886 6.46741 17.2981 7.0769C17.9076 7.6864 18.25 8.51305 18.25 9.375C18.25 10.237 17.9076 11.0636 17.2981 11.6731Z" fill="#FEFCFC" stroke="black"/>
<path d="M5.625 1.375H5.125V1.875C5.125 2.73695 4.78259 3.5636 4.1731 4.1731C3.5636 4.78259 2.73695 5.125 1.875 5.125H1.375V5.625V13.125V13.625H1.875C2.73695 13.625 3.5636 13.9674 4.1731 14.5769C4.78259 15.1864 5.125 16.013 5.125 16.875V17.375H5.625H24.375H24.875V16.875C24.875 16.013 25.2174 15.1864 25.8269 14.5769C26.4364 13.9674 27.263 13.625 28.125 13.625H28.625V13.125V5.625V5.125H28.125C27.263 5.125 26.4364 4.78259 25.8269 4.1731C25.2174 3.5636 24.875 2.73695 24.875 1.875V1.375H24.375H5.625ZM0.5 1.875C0.5 1.51033 0.644866 1.16059 0.902728 0.902728C1.16059 0.644866 1.51033 0.5 1.875 0.5H28.125C28.4897 0.5 28.8394 0.644866 29.0973 0.902728C29.3551 1.16059 29.5 1.51033 29.5 1.875V16.875C29.5 17.2397 29.3551 17.5894 29.0973 17.8473C28.8394 18.1051 28.4897 18.25 28.125 18.25H1.875C1.51033 18.25 1.16059 18.1051 0.902728 17.8473C0.644866 17.5894 0.5 17.2397 0.5 16.875V1.875Z" fill="#FEFCFC" stroke="black"/>
<path d="M34.5 17C34.5 20.3137 31.8137 23 28.5 23C25.1863 23 22.5 20.3137 22.5 17C22.5 13.6863 25.1863 11 28.5 11C31.8137 11 34.5 13.6863 34.5 17Z" fill="white"/>
<path d="M28.9419 13H28.0581V18.303L25.6275 15.8725L25 16.5L28.5 20L32 16.5L31.3725 15.8725L28.9419 18.303V13Z" fill="#111111"/>
</svg>
