<svg width="38" height="30" viewBox="0 0 38 30" fill="none" xmlns="http://www.w3.org/2000/svg">
<path d="M31.3477 2.40234C30.7969 1.85156 30.7969 0.960938 31.3477 0.416016C31.8984 -0.128906 32.7891 -0.134766 33.334 0.416016L37.084 4.16602C37.3477 4.42969 37.4941 4.78711 37.4941 5.16211C37.4941 5.53711 37.3477 5.89453 37.084 6.1582L33.334 9.9082C32.7832 10.459 31.8926 10.459 31.3477 9.9082C30.8027 9.35742 30.7969 8.4668 31.3477 7.92188L32.6953 6.57422L22.5 6.5625C21.7207 6.5625 21.0937 5.93555 21.0937 5.15625C21.0937 4.37695 21.7207 3.75 22.5 3.75H32.7012L31.3477 2.40234ZM6.15234 22.0898L4.80469 23.4375H15C15.7793 23.4375 16.4062 24.0645 16.4062 24.8437C16.4062 25.623 15.7793 26.25 15 26.25H4.79883L6.14648 27.5977C6.69727 28.1484 6.69727 29.0391 6.14648 29.584C5.5957 30.1289 4.70508 30.1348 4.16016 29.584L0.410156 25.8398C0.146484 25.5762 0 25.2187 0 24.8437C0 24.4687 0.146484 24.1113 0.410156 23.8477L4.16016 20.0977C4.71094 19.5469 5.60156 19.5469 6.14648 20.0977C6.69141 20.6484 6.69727 21.5391 6.14648 22.084L6.15234 22.0898ZM5.625 3.75H19.7988C19.582 4.17188 19.4531 4.64648 19.4531 5.15625C19.4531 6.83789 20.8184 8.20313 22.5 8.20313H29.3789C29.1445 9.19922 29.4141 10.2832 30.1875 11.0625C31.377 12.252 33.3047 12.252 34.4941 11.0625L35.625 9.93164V22.5C35.625 24.5684 33.9434 26.25 31.875 26.25H17.7012C17.918 25.8281 18.0469 25.3535 18.0469 24.8437C18.0469 23.1621 16.6816 21.7969 15 21.7969H8.12109C8.35547 20.8008 8.08594 19.7168 7.3125 18.9375C6.12305 17.748 4.19531 17.748 3.00586 18.9375L1.875 20.0684V7.5C1.875 5.43164 3.55664 3.75 5.625 3.75ZM9.375 7.5H5.625V11.25C7.69336 11.25 9.375 9.56836 9.375 7.5ZM31.875 18.75C29.8066 18.75 28.125 20.4316 28.125 22.5H31.875V18.75ZM18.75 20.625C21.8555 20.625 24.375 18.1055 24.375 15C24.375 11.8945 21.8555 9.375 18.75 9.375C15.6445 9.375 13.125 11.8945 13.125 15C13.125 18.1055 15.6445 20.625 18.75 20.625Z" fill="#F8F8F8"/>
</svg>